<svg width="14" height="23" viewBox="0 0 14 23" fill="none" xmlns="http://www.w3.org/2000/svg">
<g id="Group">
<path id="Vector" d="M9.59318 17.3552H6.87965V14.6416C6.87965 14.1438 6.47998 13.7441 5.98215 13.7441C5.48432 13.7441 5.08466 14.1438 5.08466 14.6416V17.3552H2.37113C1.8733 17.3552 1.47363 17.7548 1.47363 18.2527C1.47363 18.7505 1.8733 19.1502 2.37113 19.1502H5.08466V21.8637C5.08466 22.3615 5.48432 22.7612 5.98215 22.7612C6.47998 22.7612 6.87965 22.3615 6.87965 21.8637V19.1502H9.59318C10.091 19.1502 10.4907 18.7505 10.4907 18.2527C10.4907 17.7548 10.091 17.3552 9.59318 17.3552Z" fill="white"/>
<path id="Vector_2" d="M5.98209 3.44531C2.78476 3.44531 0.19043 6.03965 0.19043 9.23698C0.19043 12.4343 2.78476 15.0286 5.98209 15.0286C9.17943 15.0286 11.7738 12.4343 11.7738 9.23698C11.7738 6.03965 9.17943 3.44531 5.98209 3.44531ZM8.52033 11.4106H3.44386C3.03017 11.4106 2.69361 11.074 2.69361 10.6604C2.69361 10.2467 3.03017 9.9101 3.44386 9.9101H8.52033C8.93402 9.9101 9.27058 10.2467 9.27058 10.6604C9.27058 11.074 8.93402 11.4106 8.52033 11.4106ZM8.52033 8.56386H3.44386C3.03017 8.56386 2.69361 8.2273 2.69361 7.81361C2.69361 7.39992 3.03017 7.06335 3.44386 7.06335H8.52033C8.93402 7.06335 9.27058 7.39992 9.27058 7.81361C9.27058 8.2273 8.93402 8.56386 8.52033 8.56386Z" fill="white"/>
<path id="Vector_3" d="M13.5688 4.17404L13.064 1.20809C13.064 1.20809 13.064 1.19407 13.057 1.18706C13.0359 1.09591 13.0079 1.00475 12.9588 0.920611C12.9588 0.913599 12.9448 0.906581 12.9448 0.892558C12.8957 0.815429 12.8396 0.745317 12.7695 0.689223C12.7695 0.689223 12.7555 0.675201 12.7485 0.668189C12.7485 0.668189 12.7485 0.668193 12.7414 0.661181C12.6713 0.605088 12.5942 0.563012 12.5171 0.534965C12.503 0.534965 12.489 0.520942 12.475 0.513931C12.3909 0.485884 12.2997 0.464844 12.2086 0.464844C12.2015 0.464844 12.1945 0.464844 12.1875 0.464844H9.38284C8.88501 0.464844 8.48534 0.864521 8.48534 1.36235C8.48534 1.86018 8.88501 2.25985 9.38284 2.25985H10.3084L8.02958 5.08556C7.72107 5.47121 7.77716 6.03914 8.1628 6.34766C8.33108 6.48088 8.52741 6.544 8.72374 6.544C8.98317 6.544 9.24962 6.4318 9.42491 6.20743L11.6336 3.46586L11.8019 4.46853C11.879 4.90325 12.2576 5.21878 12.6854 5.21177C12.7344 5.21177 12.7835 5.21176 12.8396 5.19774C13.3304 5.1136 13.66 4.65083 13.5758 4.16001L13.5688 4.17404Z" fill="white"/>
</g>
</svg>
