<svg width="108" height="108" viewBox="0 0 108 108" fill="none" xmlns="http://www.w3.org/2000/svg">
<rect width="108" height="108" rx="54" fill="black"/>
<path d="M54.0088 27.4398C62.6662 27.4398 63.6825 27.4784 67.1043 27.6328C70.2688 27.7743 71.9797 28.3017 73.1246 28.752C74.6426 29.3437 75.7232 30.0384 76.8552 31.1704C77.9872 32.3024 78.6947 33.383 79.2736 34.9009C79.711 36.0458 80.2513 37.7567 80.3928 40.9213C80.5471 44.3431 80.5857 45.3593 80.5857 54.0168C80.5857 62.6742 80.5471 63.6904 80.3928 67.1123C80.2513 70.2768 79.7238 71.9877 79.2736 73.1326C78.6819 74.6505 77.9872 75.7311 76.8552 76.8631C75.7232 77.9952 74.6426 78.7027 73.1246 79.2815C71.9797 79.7189 70.2688 80.2592 67.1043 80.4007C63.6825 80.5551 62.6662 80.5937 54.0088 80.5937C45.3514 80.5937 44.3351 80.5551 40.9133 80.4007C37.7488 80.2592 36.0379 79.7318 34.893 79.2815C33.375 78.6898 32.2944 77.9952 31.1624 76.8631C30.0304 75.7311 29.3229 74.6505 28.744 73.1326C28.3066 71.9877 27.7663 70.2768 27.6248 67.1123C27.4705 63.6904 27.4319 62.6742 27.4319 54.0168C27.4319 45.3593 27.4705 44.3431 27.6248 40.9213C27.7663 37.7567 28.2937 36.0458 28.744 34.9009C29.3357 33.383 30.0304 32.3024 31.1624 31.1704C32.2944 30.0384 33.375 29.3308 34.893 28.752C36.0379 28.3146 37.7488 27.7743 40.9133 27.6328C44.3351 27.4656 45.3642 27.4398 54.0088 27.4398ZM54.0088 21.5996C45.2099 21.5996 44.1036 21.6382 40.6431 21.7926C37.1956 21.9469 34.8415 22.5001 32.7833 23.2977C30.6479 24.1209 28.8469 25.2401 27.0459 27.0411C25.245 28.842 24.1387 30.6558 23.3025 32.7784C22.505 34.8366 21.9518 37.1907 21.7975 40.6511C21.6431 44.0987 21.6045 45.205 21.6045 54.0039C21.6045 62.8028 21.6431 63.9091 21.7975 67.3695C21.9518 70.8171 22.505 73.1712 23.3025 75.2423C24.1258 77.3777 25.245 79.1786 27.0459 80.9796C28.8469 82.7805 30.6607 83.8868 32.7833 84.723C34.8415 85.5206 37.1956 86.0737 40.656 86.2281C44.1164 86.3824 45.2099 86.421 54.0217 86.421C62.8335 86.421 63.9269 86.3824 67.3873 86.2281C70.8349 86.0737 73.189 85.5206 75.2601 84.723C77.3955 83.8997 79.1964 82.7805 80.9974 80.9796C82.7983 79.1786 83.9046 77.3648 84.7408 75.2423C85.5384 73.184 86.0915 70.8299 86.2459 67.3695C86.4002 63.9091 86.4388 62.8157 86.4388 54.0039C86.4388 45.1921 86.4002 44.0987 86.2459 40.6383C86.0915 37.1907 85.5384 34.8366 84.7408 32.7655C83.9175 30.6301 82.7983 28.8291 80.9974 27.0282C79.1964 25.2272 77.3826 24.1209 75.2601 23.2848C73.2018 22.4872 70.8477 21.9341 67.3873 21.7797C63.914 21.6382 62.8077 21.5996 54.0088 21.5996Z" fill="white"/>
<path d="M54.0083 37.3711C44.8234 37.3711 37.3623 44.8193 37.3623 54.017C37.3623 63.2148 44.8105 70.663 54.0083 70.663C63.206 70.663 70.6542 63.2148 70.6542 54.017C70.6542 44.8193 63.206 37.3711 54.0083 37.3711ZM54.0083 64.8099C48.0394 64.8099 43.2025 59.973 43.2025 54.0042C43.2025 48.0353 48.0394 43.1985 54.0083 43.1985C59.9771 43.1985 64.814 48.0353 64.814 54.0042C64.814 59.973 59.9771 64.8099 54.0083 64.8099Z" fill="white"/>
<path d="M71.3107 40.5862C73.4563 40.5862 75.1956 38.8469 75.1956 36.7013C75.1956 34.5557 73.4563 32.8164 71.3107 32.8164C69.1651 32.8164 67.4258 34.5557 67.4258 36.7013C67.4258 38.8469 69.1651 40.5862 71.3107 40.5862Z" fill="white"/>
</svg>
