<svg width="109" height="109" viewBox="0 0 109 109" fill="none" xmlns="http://www.w3.org/2000/svg">
<rect x="0.167969" y="0.199219" width="108" height="108" rx="54" fill="black"/>
<path d="M78.5094 26.4297H29.8275C28.7093 26.4297 27.6369 26.8616 26.8462 27.6305C26.0555 28.3994 25.6113 29.4422 25.6113 30.5296V77.8689C25.6113 78.9562 26.0555 79.9991 26.8462 80.7679C27.6369 81.5368 28.7093 81.9688 29.8275 81.9688H78.5094C79.6276 81.9688 80.7 81.5368 81.4907 80.7679C82.2814 79.9991 82.7256 78.9562 82.7256 77.8689V30.5296C82.7256 29.4422 82.2814 28.3994 81.4907 27.6305C80.7 26.8616 79.6276 26.4297 78.5094 26.4297ZM42.6346 73.742H34.0476V47.2183H42.6346V73.742ZM38.3351 43.5427C37.3611 43.5373 36.4105 43.2515 35.6033 42.7213C34.7961 42.1912 34.1686 41.4403 33.7998 40.5637C33.431 39.687 33.3376 38.7237 33.5312 37.7954C33.7249 36.8671 34.197 36.0154 34.888 35.3478C35.579 34.6802 36.4578 34.2266 37.4137 34.0442C38.3695 33.8619 39.3595 33.9589 40.2586 34.3231C41.1578 34.6874 41.9259 35.3024 42.4659 36.0907C43.0059 36.879 43.2937 37.8052 43.293 38.7524C43.3021 39.3866 43.1799 40.016 42.9336 40.6033C42.6873 41.1905 42.322 41.7235 41.8593 42.1705C41.3967 42.6176 40.8462 42.9694 40.2407 43.2051C39.6353 43.4409 38.9872 43.5557 38.3351 43.5427ZM74.2854 73.7652H65.7024V59.2749C65.7024 55.0015 63.8343 53.6824 61.4228 53.6824C58.8764 53.6824 56.3777 55.5491 56.3777 59.3829V73.7652H47.7907V47.2376H56.0485V50.9132H56.1595C56.9885 49.2817 59.8918 46.4932 64.3221 46.4932C69.1134 46.4932 74.2893 49.2586 74.2893 57.358L74.2854 73.7652Z" fill="white"/>
</svg>
