<svg width="35" height="27" viewBox="0 0 35 27" fill="none" xmlns="http://www.w3.org/2000/svg">
<g id="Group">
<path id="Vector" d="M28.7364 26.0896H6.26465V11.6096L17.3265 15.9496C17.3845 15.9796 17.4425 15.9896 17.5005 15.9896C17.5585 15.9896 17.6248 15.9896 17.6745 15.9496L28.7281 11.5996V26.0896H28.7364Z" fill="white"/>
<path id="Vector_2" d="M33.8986 19.8496V7.70961C33.8986 7.64961 33.8738 7.58961 33.8489 7.53961L34.1803 7.40961L17.484 0.849609L0.795898 7.42961L17.4923 13.9896L33.3103 7.75961V19.8596C33.3103 20.0296 33.4097 20.1596 33.5423 20.1996C33.5672 20.1996 33.5838 20.1996 33.6086 20.1996C33.766 20.1996 33.8986 20.0396 33.8986 19.8496Z" fill="white"/>
</g>
</svg>
