<svg width="264" height="62" viewBox="0 0 264 62" fill="none" xmlns="http://www.w3.org/2000/svg">
<path d="M252.473 26.6619C254.131 27.402 255.198 28.5131 256.787 29.2944C257.494 29.6354 257.546 30.2494 257.644 30.7941C258.159 33.4341 258.92 36.0624 259.324 38.7014C259.458 39.595 259.861 40.4632 259.838 41.3693C259.807 42.6379 259.395 43.0247 257.485 43.4258C257.058 43.5195 256.566 43.5708 256.182 43.7208C247.605 48.0629 245.55 49.5085 246.473 49.5454C249.065 49.5548 249.992 49.9954 250.601 51.5766C251 52.5841 251.265 53.6183 251.53 54.6526C251.713 55.3793 251.552 55.5452 250.429 55.7721C249.441 55.9723 248.41 56.0885 247.401 56.2189C246.639 56.3236 245.965 56.4848 245.551 56.9273C245.184 57.3004 244.623 57.4209 243.951 57.4845C238.194 58.0461 232.417 58.496 226.621 58.8481C221.004 59.1879 215.365 59.4856 209.728 59.7415C206.058 59.9176 202.369 59.9959 198.679 60.1438C194.943 60.2914 191.207 60.4529 187.471 60.6145C185.637 60.6955 183.781 60.7624 181.948 60.7877C175.264 60.8948 168.576 61.1273 161.894 61.1646C152.843 61.2085 143.791 61.2802 134.717 61.3378C126.939 61.3932 119.134 61.6295 111.362 61.4758C103.232 61.3048 95.1031 61.106 86.9988 60.8098C79.8099 60.5498 72.6241 60.1643 65.4386 59.7648C57.807 59.3334 50.1779 58.8045 42.547 58.3452C37.5041 58.0488 32.438 57.7939 27.3952 57.4974C24.762 57.3482 22.1073 57.1709 19.4755 56.9659C17.3123 56.793 16.8518 56.4402 16.6394 55.0997C16.0753 51.7342 15.4887 48.3684 14.9242 45.0168C14.7688 44.0812 14.6576 43.1599 14.6139 42.2252C14.5687 41.3464 16.4097 41.0004 16.4097 41.0004L19.9192 39.1615C19.9192 39.1615 11.8502 36.5531 9.17696 36.2222C7.77329 36.0562 6.34629 35.9317 4.89171 36.0162C3.191 36.1124 2.2425 35.6159 2.06783 34.5546C1.51096 30.8963 0.617909 27.2768 0.441534 23.594C0.445008 23.4546 0.426461 23.3011 0.429935 23.1617C0.455294 22.144 0.637911 21.9922 2.18639 21.7273C4.4082 21.343 6.69427 21.0708 8.95662 20.8542C13.0558 20.4589 17.156 20.0218 21.296 19.7802C23.3102 19.659 23.5598 19.5078 23.4577 18.2241C23.3077 16.173 23.0233 14.1346 22.7839 12.0827C22.656 10.9382 22.4611 9.79304 22.3332 8.64849C22.1357 6.70852 21.9606 4.76876 21.7855 2.82899C21.7701 2.54997 21.7777 2.24327 21.8517 1.96506C22.098 1.04699 22.6192 0.758884 24.0913 0.869767C27.3028 1.12183 30.5447 1.05345 33.7604 1.13823C41.0178 1.34312 48.2999 1.45063 55.5311 1.80868C62.8963 2.16792 70.2643 2.41565 77.6327 2.64943C90.9626 3.07642 104.28 3.09894 117.621 3.07982C126.627 3.06344 135.629 3.22829 144.636 3.1422C155.074 3.04113 165.527 3.24696 175.964 3.18771C180.747 3.16113 185.549 3.24627 190.334 3.12211C194.314 3.01857 198.29 3.09626 202.27 3.02061C209.87 2.89395 217.493 2.79535 225.096 2.55717C230.62 2.38389 236.164 2.30839 241.689 2.07936C246.006 1.89519 250.342 1.89246 254.601 1.34524C255.901 1.17569 256.923 1.4359 257.869 2.01614C259.344 2.92184 260.501 4.01989 261.93 4.95307C262.634 5.40562 262.684 6.07537 262.691 6.68896C262.712 8.52973 262.89 10.358 263.024 12.1858C263.156 14.0555 263.221 15.9245 263.174 17.7926C263.127 19.7025 261.962 20.7238 259.02 21.3108C252.518 24.8424 250.328 26.6426 252.473 26.6619Z" fill="#BAFC66"/>
</svg>
