<svg width="56" height="57" viewBox="0 0 56 57" fill="none" xmlns="http://www.w3.org/2000/svg">
<g filter="url(#filter0_f_1749_6975)">
<path fill-rule="evenodd" clip-rule="evenodd" d="M28.0742 52.9551C41.1219 52.9551 51.6992 42.3778 51.6992 29.3301C51.6992 16.2824 41.1219 5.70508 28.0742 5.70508C15.0265 5.70508 4.44922 16.2824 4.44922 29.3301C4.44922 33.5672 5.56465 37.5438 7.51789 40.9822L4.44922 52.9551L16.793 50.0927C20.1453 51.918 23.9886 52.9551 28.0742 52.9551ZM28.0742 49.3205C39.1146 49.3205 48.0646 40.3705 48.0646 29.3301C48.0646 18.2897 39.1146 9.33969 28.0742 9.33969C17.0338 9.33969 8.08383 18.2897 8.08383 29.3301C8.08383 33.5928 9.41807 37.5439 11.6917 40.7886L9.90114 47.5032L16.7341 45.7949C19.9563 48.0184 23.8632 49.3205 28.0742 49.3205Z" fill="#938F8F"/>
</g>
<path d="M48.3242 27.6426C48.3242 38.8263 39.258 47.8926 28.0742 47.8926C23.8085 47.8926 19.8508 46.5736 16.5868 44.3212L9.66513 46.0517L11.4789 39.2499C9.17578 35.9631 7.82422 31.9607 7.82422 27.6426C7.82422 16.4588 16.8905 7.39258 28.0742 7.39258C39.258 7.39258 48.3242 16.4588 48.3242 27.6426Z" fill="white"/>
<path fill-rule="evenodd" clip-rule="evenodd" d="M28.0742 51.2676C41.1219 51.2676 51.6992 40.6903 51.6992 27.6426C51.6992 14.5949 41.1219 4.01758 28.0742 4.01758C15.0265 4.01758 4.44922 14.5949 4.44922 27.6426C4.44922 31.8797 5.56465 35.8563 7.51789 39.2947L4.44922 51.2676L16.793 48.4052C20.1453 50.2305 23.9886 51.2676 28.0742 51.2676ZM28.0742 47.633C39.1146 47.633 48.0646 38.683 48.0646 27.6426C48.0646 16.6022 39.1146 7.65219 28.0742 7.65219C17.0338 7.65219 8.08383 16.6022 8.08383 27.6426C8.08383 31.9053 9.41807 35.8564 11.6917 39.1011L9.90114 45.8157L16.7341 44.1074C19.9563 46.3309 23.8632 47.633 28.0742 47.633Z" fill="black" fill-opacity="0.88" stroke="white" stroke-width="2"/>
<path d="M22.168 16.6742C21.6063 15.5459 20.7446 15.6458 19.8741 15.6458C18.3184 15.6458 15.8926 17.5093 15.8926 20.9774C15.8926 23.8197 17.145 26.931 21.3654 31.5853C25.4384 36.077 30.7901 38.4006 35.2329 38.3215C39.6758 38.2424 40.5899 34.4192 40.5899 33.128C40.5899 32.5557 40.2348 32.2702 39.9901 32.1926C38.4761 31.466 35.6837 30.1122 35.0484 29.8578C34.413 29.6034 34.0812 29.9475 33.875 30.1346C33.2988 30.6837 32.1567 32.3019 31.7656 32.6659C31.3746 33.0299 30.7916 32.8457 30.5489 32.7081C29.6561 32.3498 27.2354 31.273 25.3058 29.4025C22.9195 27.0892 22.7794 26.2933 22.3298 25.5849C21.9701 25.0181 22.2341 24.6704 22.3658 24.5184C22.8799 23.9251 23.5899 23.0092 23.9082 22.554C24.2266 22.0989 23.9739 21.4078 23.8222 20.9774C23.17 19.1263 22.6174 17.5767 22.168 16.6742Z" fill="black" fill-opacity="0.88"/>
<defs>
<filter id="filter0_f_1749_6975" x="0.449219" y="1.70508" width="55.25" height="55.25" filterUnits="userSpaceOnUse" color-interpolation-filters="sRGB">
<feFlood flood-opacity="0" result="BackgroundImageFix"/>
<feBlend mode="normal" in="SourceGraphic" in2="BackgroundImageFix" result="shape"/>
<feGaussianBlur stdDeviation="2" result="effect1_foregroundBlur_1749_6975"/>
</filter>
</defs>
</svg>
