<svg width="109" height="109" viewBox="0 0 109 109" fill="none" xmlns="http://www.w3.org/2000/svg">
<rect x="0.503906" y="0.199219" width="108" height="108" rx="54" fill="black"/>
<path d="M21.748 85.6088L26.3782 68.7951C23.5157 63.86 22.014 58.271 22.0296 52.5574C22.0296 34.654 36.6711 20.0977 54.6444 20.0977C63.3729 20.0977 71.5696 23.476 77.7172 29.6098C83.8803 35.7437 87.2748 43.9015 87.2591 52.573C87.2591 70.4765 72.6177 85.0328 54.6287 85.0328H54.6131C49.1538 85.0328 43.7884 83.6628 39.0174 81.0784L21.748 85.6088ZM39.8465 75.2092L40.832 75.8008C44.9929 78.2606 49.7639 79.5528 54.6287 79.5683H54.6444C69.583 79.5683 81.753 67.4718 81.753 52.5886C81.753 45.3805 78.9373 38.6083 73.8222 33.5019C68.7071 28.3955 61.8869 25.5932 54.6444 25.5932C39.7057 25.5777 27.5358 37.6742 27.5358 52.5574C27.5358 57.6482 28.9593 62.6145 31.6811 66.9114L32.3224 67.9389L29.585 77.887L39.8465 75.2092Z" fill="white"/>
<path d="M22.8896 84.4726L27.3634 68.2349C24.5947 63.4866 23.1399 58.0844 23.1399 52.5732C23.1556 35.2925 37.2808 21.2344 54.6441 21.2344C63.0754 21.2344 70.9749 24.5037 76.9191 30.4196C82.8633 36.3356 86.1326 44.2131 86.1326 52.5888C86.1326 69.8696 71.9917 83.9277 54.6441 83.9277H54.6284C49.3569 83.9277 44.1792 82.6044 39.5803 80.1135L22.8896 84.4726Z" fill="black"/>
<path d="M21.748 85.6088L26.3782 68.7951C23.5157 63.86 22.014 58.271 22.0296 52.5574C22.0296 34.654 36.6711 20.0977 54.6444 20.0977C63.3729 20.0977 71.5696 23.476 77.7172 29.6098C83.8803 35.7437 87.2748 43.9015 87.2591 52.573C87.2591 70.4765 72.6177 85.0328 54.6287 85.0328H54.6131C49.1538 85.0328 43.7884 83.6628 39.0174 81.0784L21.748 85.6088ZM39.8465 75.2092L40.832 75.8008C44.9929 78.2606 49.7639 79.5528 54.6287 79.5683H54.6444C69.583 79.5683 81.753 67.4718 81.753 52.5886C81.753 45.3805 78.9373 38.6083 73.8222 33.5019C68.7071 28.3955 61.8869 25.5932 54.6444 25.5932C39.7057 25.5777 27.5358 37.6742 27.5358 52.5574C27.5358 57.6482 28.9593 62.6145 31.6811 66.9114L32.3224 67.9389L29.585 77.887L39.8465 75.2092Z" fill="white"/>
<path fill-rule="evenodd" clip-rule="evenodd" d="M46.4948 38.9812C45.8847 37.6267 45.2434 37.5956 44.6646 37.58C44.1953 37.5645 43.6479 37.5645 43.1004 37.5645C42.5529 37.5645 41.6769 37.7668 40.926 38.5764C40.1752 39.3859 38.0791 41.3475 38.0791 45.3486C38.0791 49.334 41.0043 53.195 41.411 53.7399C41.8177 54.2847 47.0579 62.7383 55.3329 65.9921C62.2156 68.7009 63.6234 68.156 65.1095 68.0159C66.5955 67.8758 69.9274 66.0543 70.6157 64.155C71.2883 62.2557 71.2883 60.6366 71.0849 60.2941C70.8816 59.9516 70.3341 59.7492 69.5207 59.3444C68.7073 58.9396 64.7028 56.9781 63.9519 56.6978C63.2011 56.4332 62.6536 56.293 62.1217 57.1026C61.5742 57.9121 60.01 59.7336 59.5407 60.2785C59.0714 60.8234 58.5865 60.8857 57.7731 60.4809C56.9597 60.0761 54.3317 59.2199 51.2189 56.4487C48.7943 54.3003 47.1518 51.6381 46.6825 50.8286C46.2132 50.019 46.6356 49.5831 47.0423 49.1784C47.4021 48.8203 47.8557 48.2287 48.2624 47.7617C48.6691 47.2946 48.8099 46.9521 49.0758 46.4072C49.3418 45.8623 49.2166 45.3953 49.0133 44.9905C48.8099 44.6013 47.2144 40.5847 46.4948 38.9812Z" fill="white"/>
</svg>
